# xmcd CD database file
#
# Track frame offsets:
#	150
#	23774
#	40186
#	62140
#	80448
#	98131
#	112590
#	126066
#	144482
#	163480
#	182889
#	197767
#	212058
#	226875
#	245333
#	262207
#	277959
#
# Disc length: 3871 seconds
#
# Revision: 0
# Processed by: cddbd v1.5.1PL0 Copyright (c) Steve Scherf et al.
# Submitted via: CDex 1.51
#
DISCID=ee0f1d11
DTITLE=diverse - Line-Fire CD 12
DYEAR=2005
DGENRE=LineDance
TTITLE0=01 - Dance On  [ Dance On ] Rick Tippe
TTITLE1=02 - Until The End [ Stuck On You  ] 3 T
TTITLE2=03 - Simply Cha Cha [ When The Sun Goes Down] Chesney and Uncel Kracker
TTITLE3=04 - A Devil In Me [ Diavolo In Me ] Zucchero Feat. Solomon Burke
TTITLE4=05 - Slow Burn [ Fire (american) ] Des'ree and Babyface
TTITLE5=06 - Burning Love [ Burning Love ] Wayonna
TTITLE6=07 - Sweet, Sweet Smile [Sweet Sweet Smile ] Carpenters
TTITLE7=08 - Mustang Sally [ Mustang Sally ] Commitments
TTITLE8=09 - Femme Like U [ Femme Like You ] K.Maro
TTITLE9=10 - Bounce [ Bounce ] Sarah Connor
TTITLE10=11 - Mars Attack [ Chocolate Choco Choco ] Soul Control
TTITLE11=12 - Splish Splash [ Splish Splash ] Scooter Lee
TTITLE12=13 - Wanna Be Me Forever [ I Wanna Be Your Man ] Keith Urban
TTITLE13=14 - Mexican Outlaw [ Blue Rodeo ] Bellamy Brothers
TTITLE14=15 - Tik Tok Too [ What You Waiting For ] Gwen Stefani
TTITLE15=16 - All Day Long [ Mr. Mom ] Lonestar
TTITLE16=17 - Thrill Of The Chase [ Thrill Of The Chase ] Brett James
EXTD=YEAR: 2005
EXTT0=
EXTT1=
EXTT2=
EXTT3=
EXTT4=
EXTT5=
EXTT6=
EXTT7=
EXTT8=
EXTT9=
EXTT10=
EXTT11=
EXTT12=
EXTT13=
EXTT14=
EXTT15=
EXTT16=
PLAYORDER=
